<svg width="551" height="92" viewBox="0 0 551 92" fill="none" xmlns="http://www.w3.org/2000/svg">
<path d="M54.5654 29.348V53.4264C54.5654 61.2909 52.6531 66.9469 48.8286 70.3944C45.0579 73.788 38.6747 75.4848 29.679 75.4848C21.1142 75.4848 14.8118 73.6533 10.7718 69.9904C6.78564 66.3275 4.79257 60.8061 4.79257 53.4264V29.348C4.79257 26.4931 5.6275 24.1768 7.29737 22.3992C9.0211 20.5677 11.1758 19.652 13.7614 19.652C16.9395 19.652 19.3366 20.2445 20.9526 21.4296C22.6224 22.6147 23.4574 25.0117 23.4574 28.6208V54.9616C23.5112 56.6853 23.7806 58.0589 24.2654 59.0824C24.804 60.1059 25.5043 60.8331 26.3662 61.264C27.228 61.6411 28.3323 61.8296 29.679 61.8296C31.0256 61.8296 32.1299 61.668 32.9918 61.3448C33.8536 61.0216 34.4731 60.5099 34.8502 59.8096C35.2811 59.1093 35.5504 58.4091 35.6582 57.7088C35.8198 57.0085 35.9006 56.0928 35.9006 54.9616V28.54C35.9006 26.7085 36.116 25.1733 36.547 23.9344C37.0318 22.6955 37.732 21.7797 38.6478 21.1872C39.6174 20.5947 40.587 20.1907 41.5566 19.9752C42.58 19.7597 43.792 19.652 45.1926 19.652C48.3168 19.652 50.66 20.4061 52.2222 21.9144C53.7843 23.4227 54.5654 25.9005 54.5654 29.348Z" fill="#FF717F"/>
<path d="M89.8188 53.2648C89.8188 50.2483 88.6337 48.74 86.2636 48.74C85.1324 48.74 84.1897 49.2248 83.4356 50.1944C82.7353 51.1101 82.3313 52.3491 82.2236 53.9112V66.3544C82.2236 69.6403 81.5503 71.9027 80.2036 73.1416C78.8569 74.3805 76.4868 75 73.0932 75C69.9151 75 67.7335 74.2728 66.5484 72.8184C65.4172 71.3101 64.8516 68.8592 64.8516 65.4656V45.5888C64.8516 42.8416 65.5788 40.6331 67.0332 38.9632C68.5415 37.2933 70.5345 36.4584 73.0124 36.4584C75.0593 36.4584 76.7831 36.7547 78.1836 37.3472C79.5841 37.9397 80.6345 38.9632 81.3348 40.4176C85.5364 37.6704 90.6537 36.2968 96.6868 36.2968C100.511 36.2968 103.259 37.8051 104.928 40.8216C106.652 43.8381 107.514 48.7939 107.514 55.6888C107.514 59.0824 107.433 61.8565 107.272 64.0112C107.11 66.112 106.841 67.9435 106.464 69.5056C106.14 71.0139 105.602 72.1451 104.848 72.8992C104.093 73.6533 103.205 74.192 102.181 74.5152C101.212 74.8384 99.9457 75 98.3836 75C95.3671 75 93.1855 74.4344 91.8388 73.3032C90.546 72.172 89.8996 70.5021 89.8996 68.2936L89.8188 53.2648Z" fill="#FFCD59"/>
<path d="M116.177 25.2272C116.177 23.4496 116.931 21.9952 118.439 20.864C120.001 19.6789 122.183 19.0864 124.984 19.0864C130.855 19.0864 133.791 21.1333 133.791 25.2272C133.791 27.4896 133.037 29.0787 131.529 29.9944C130.074 30.9101 127.893 31.368 124.984 31.368C122.452 31.368 120.351 30.8832 118.681 29.9136C117.012 28.944 116.177 27.3819 116.177 25.2272ZM133.71 66.3544C133.71 69.5864 133.037 71.8488 131.69 73.1416C130.344 74.3805 127.973 75 124.58 75C121.402 75 119.22 74.2728 118.035 72.8184C116.904 71.3101 116.338 68.8592 116.338 65.4656V45.5888C116.338 42.8416 117.065 40.6331 118.52 38.9632C120.028 37.2933 122.021 36.4584 124.499 36.4584C127.408 36.4584 129.67 37.1048 131.286 38.3976C132.902 39.6365 133.71 41.9528 133.71 45.3464V66.3544Z" fill="#9ED4A3"/>
<path d="M142.411 25.2272C142.411 23.4496 143.166 21.9952 144.674 20.864C146.236 19.6789 148.418 19.0864 151.219 19.0864C157.09 19.0864 160.026 21.1333 160.026 25.2272C160.026 27.4896 159.272 29.0787 157.763 29.9944C156.309 30.9101 154.127 31.368 151.219 31.368C148.687 31.368 146.586 30.8832 144.916 29.9136C143.246 28.944 142.411 27.3819 142.411 25.2272ZM159.945 66.3544C159.945 69.5864 159.272 71.8488 157.925 73.1416C156.578 74.3805 154.208 75 150.815 75C147.636 75 145.455 74.2728 144.27 72.8184C143.139 71.3101 142.573 68.8592 142.573 65.4656V45.5888C142.573 42.8416 143.3 40.6331 144.755 38.9632C146.263 37.2933 148.256 36.4584 150.734 36.4584C153.643 36.4584 155.905 37.1048 157.521 38.3976C159.137 39.6365 159.945 41.9528 159.945 45.3464V66.3544Z" fill="#88C5FF"/>
<path d="M186.665 62.7992C186.665 67.1624 185.937 70.2867 184.483 72.172C183.029 74.0573 180.793 75 177.777 75C174.76 75 172.551 74.1651 171.151 72.4952C169.75 70.7715 169.05 67.7549 169.05 63.4456L168.889 29.348C168.889 27.9475 169.023 26.7085 169.293 25.6312C169.616 24.5539 170.02 23.6381 170.505 22.884C171.043 22.1299 171.69 21.5104 172.444 21.0256C173.198 20.5408 174.006 20.1907 174.868 19.9752C175.783 19.7597 176.753 19.652 177.777 19.652C180.739 19.652 182.948 20.2445 184.402 21.4296C185.91 22.6147 186.665 25.0117 186.665 28.6208V62.7992ZM210.139 75.4848C205.883 75.4848 202.355 73.7611 199.554 70.3136C196.753 66.8123 195.352 62.0451 195.352 56.012C195.352 49.8712 196.726 44.9963 199.473 41.3872C202.274 37.7243 205.829 35.8928 210.139 35.8928C214.502 35.8928 218.542 37.428 222.259 40.4984C223.713 37.8051 226.056 36.4584 229.288 36.4584C232.197 36.4584 234.46 37.1048 236.076 38.3976C237.692 39.6365 238.5 41.9528 238.5 45.3464V66.3544C238.5 69.5864 237.826 71.8488 236.48 73.1416C235.133 74.3805 232.763 75 229.369 75C225.814 75 223.471 74.0035 222.34 72.0104C218.892 74.3267 214.825 75.4848 210.139 75.4848ZM221.128 48.2552C220.212 46.6931 219.027 45.912 217.572 45.912C216.172 45.912 215.041 46.9355 214.179 48.9824C213.317 51.0293 212.886 53.3725 212.886 56.012C212.886 58.4899 213.29 60.6984 214.098 62.6376C214.906 64.5768 216.037 65.5464 217.492 65.5464C219 65.5464 220.212 64.8192 221.128 63.3648V48.2552ZM272.518 53.2648C272.518 50.2483 271.333 48.74 268.963 48.74C267.832 48.74 266.889 49.2248 266.135 50.1944C265.435 51.1101 265.031 52.3491 264.923 53.9112V66.3544C264.923 69.6403 264.25 71.9027 262.903 73.1416C261.556 74.3805 259.186 75 255.793 75C252.615 75 250.433 74.2728 249.248 72.8184C248.117 71.3101 247.551 68.8592 247.551 65.4656V45.5888C247.551 42.8416 248.278 40.6331 249.733 38.9632C251.241 37.2933 253.234 36.4584 255.712 36.4584C257.759 36.4584 259.483 36.7547 260.883 37.3472C262.284 37.9397 263.334 38.9632 264.034 40.4176C268.236 37.6704 273.353 36.2968 279.386 36.2968C283.211 36.2968 285.958 37.8051 287.628 40.8216C289.352 43.8381 290.214 48.7939 290.214 55.6888C290.214 59.0824 290.133 61.8565 289.971 64.0112C289.81 66.112 289.54 67.9435 289.163 69.5056C288.84 71.0139 288.301 72.1451 287.547 72.8992C286.793 73.6533 285.904 74.192 284.881 74.5152C283.911 74.8384 282.645 75 281.083 75C278.067 75 275.885 74.4344 274.538 73.3032C273.246 72.172 272.599 70.5021 272.599 68.2936L272.518 53.2648ZM313.035 75.4848C308.78 75.4848 305.251 73.7611 302.45 70.3136C299.649 66.8123 298.249 62.0181 298.249 55.9312C298.249 49.7904 299.622 44.9155 302.369 41.3064C305.117 37.6973 308.645 35.8928 312.954 35.8928C317.317 35.8928 321.357 37.4011 325.074 40.4176C326.475 37.7781 328.791 36.4584 332.023 36.4584C334.932 36.4584 337.194 37.1048 338.81 38.3976C340.48 39.6904 341.315 42.0067 341.315 45.3464V60.1328C341.315 65.3579 340.965 69.8557 340.265 73.6264C339.618 77.3432 338.46 80.6291 336.79 83.484C335.174 86.3389 332.912 88.4667 330.003 89.8672C327.148 91.2677 323.62 91.968 319.418 91.968C316.509 91.968 313.816 91.564 311.338 90.756C308.86 89.948 306.894 88.9515 305.44 87.7664C303.985 86.5813 302.854 85.3963 302.046 84.2112C301.238 83.0261 300.834 82.0027 300.834 81.1408C300.834 80.1173 301.131 79.2555 301.723 78.5552C302.316 77.8549 303.151 77.5048 304.228 77.5048C304.874 77.5048 306.49 78.2051 309.076 79.6056C311.715 81.0061 313.843 81.7064 315.459 81.7064C320.953 81.7064 323.701 78.8784 323.701 73.2224C320.576 74.7307 317.021 75.4848 313.035 75.4848ZM324.024 63.3648L323.943 48.0936C323.027 46.5853 321.869 45.8312 320.469 45.8312C319.499 45.8312 318.637 46.3429 317.883 47.3664C317.183 48.3899 316.644 49.6557 316.267 51.164C315.944 52.6723 315.782 54.2613 315.782 55.9312C315.782 58.4629 316.186 60.6984 316.994 62.6376C317.802 64.5229 318.933 65.4656 320.388 65.4656C321.842 65.4656 323.054 64.7653 324.024 63.3648ZM368.062 57.9512C368.062 61.0216 369.247 62.5568 371.617 62.5568C372.425 62.5568 373.125 62.3144 373.718 61.8296C374.364 61.2909 374.849 60.5637 375.172 59.648C375.495 58.7323 375.657 57.6819 375.657 56.4968V45.6696C375.657 43.8381 375.98 42.2491 376.627 40.9024C377.273 39.5019 378.216 38.4245 379.455 37.6704C380.694 36.9163 382.148 36.5392 383.818 36.5392C386.727 36.5392 388.989 37.1856 390.605 38.4784C392.221 39.7173 393.029 42.0336 393.029 45.4272V66.4352C393.029 69.7211 392.356 71.9835 391.009 73.2224C389.662 74.4613 387.292 75.0808 383.899 75.0808C382.444 75.0808 381.205 74.9461 380.182 74.6768C379.158 74.3536 378.323 73.8957 377.677 73.3032C377.084 72.7107 376.627 71.9296 376.303 70.96C374.095 72.4144 371.752 73.4379 369.274 74.0304C366.85 74.6229 364.13 74.9192 361.113 74.9192C357.288 74.9192 354.541 73.4379 352.871 70.4752C351.202 67.4587 350.367 62.5299 350.367 55.6888C350.367 52.2952 350.447 49.548 350.609 47.4472C350.771 45.2925 351.013 43.4611 351.336 41.9528C351.713 40.3907 352.252 39.2325 352.952 38.4784C353.706 37.7243 354.568 37.1856 355.538 36.8624C356.561 36.5392 357.881 36.3776 359.497 36.3776C362.514 36.3776 364.668 36.9432 365.961 38.0744C367.308 39.2056 367.981 40.9024 367.981 43.1648L368.062 57.9512ZM416.946 75.4848C412.69 75.4848 409.162 73.7611 406.361 70.3136C403.56 66.8123 402.159 62.0451 402.159 56.012C402.159 49.8712 403.533 44.9963 406.28 41.3872C409.081 37.7243 412.636 35.8928 416.946 35.8928C421.309 35.8928 425.349 37.428 429.066 40.4984C430.52 37.8051 432.863 36.4584 436.095 36.4584C439.004 36.4584 441.267 37.1048 442.883 38.3976C444.499 39.6365 445.307 41.9528 445.307 45.3464V66.3544C445.307 69.5864 444.633 71.8488 443.287 73.1416C441.94 74.3805 439.57 75 436.176 75C432.621 75 430.278 74.0035 429.147 72.0104C425.699 74.3267 421.632 75.4848 416.946 75.4848ZM427.935 48.2552C427.019 46.6931 425.834 45.912 424.379 45.912C422.979 45.912 421.848 46.9355 420.986 48.9824C420.124 51.0293 419.693 53.3725 419.693 56.012C419.693 58.4899 420.097 60.6984 420.905 62.6376C421.713 64.5768 422.844 65.5464 424.299 65.5464C425.807 65.5464 427.019 64.8192 427.935 63.3648V48.2552ZM469.225 75.4848C464.97 75.4848 461.442 73.7611 458.64 70.3136C455.839 66.8123 454.439 62.0181 454.439 55.9312C454.439 49.7904 455.812 44.9155 458.56 41.3064C461.307 37.6973 464.835 35.8928 469.144 35.8928C473.508 35.8928 477.548 37.4011 481.264 40.4176C482.665 37.7781 484.981 36.4584 488.213 36.4584C491.122 36.4584 493.384 37.1048 495 38.3976C496.67 39.6904 497.505 42.0067 497.505 45.3464V60.1328C497.505 65.3579 497.155 69.8557 496.455 73.6264C495.808 77.3432 494.65 80.6291 492.98 83.484C491.364 86.3389 489.102 88.4667 486.193 89.8672C483.338 91.2677 479.81 91.968 475.608 91.968C472.7 91.968 470.006 91.564 467.528 90.756C465.051 89.948 463.084 88.9515 461.63 87.7664C460.176 86.5813 459.044 85.3963 458.236 84.2112C457.428 83.0261 457.024 82.0027 457.024 81.1408C457.024 80.1173 457.321 79.2555 457.913 78.5552C458.506 77.8549 459.341 77.5048 460.418 77.5048C461.064 77.5048 462.68 78.2051 465.266 79.6056C467.906 81.0061 470.033 81.7064 471.649 81.7064C477.144 81.7064 479.891 78.8784 479.891 73.2224C476.767 74.7307 473.211 75.4848 469.225 75.4848ZM480.214 63.3648L480.133 48.0936C479.218 46.5853 478.059 45.8312 476.659 45.8312C475.689 45.8312 474.827 46.3429 474.073 47.3664C473.373 48.3899 472.834 49.6557 472.457 51.164C472.134 52.6723 471.972 54.2613 471.972 55.9312C471.972 58.4629 472.376 60.6984 473.184 62.6376C473.992 64.5229 475.124 65.4656 476.578 65.4656C478.032 65.4656 479.244 64.7653 480.214 63.3648ZM528.777 75.4848C522.205 75.4848 516.764 73.788 512.455 70.3944C508.2 67.0008 506.072 62.3683 506.072 56.4968C506.072 50.1405 508.173 45.1309 512.374 41.468C516.63 37.7512 522.097 35.8928 528.777 35.8928C535.079 35.8928 539.685 37.024 542.594 39.2864C545.556 41.4949 547.038 44.5384 547.038 48.4168C547.038 49.1709 546.93 49.8981 546.714 50.5984C546.553 51.2987 546.256 51.9989 545.826 52.6992C545.448 53.3456 544.91 53.9651 544.21 54.5576C543.563 55.0963 542.809 55.608 541.947 56.0928C541.085 56.5237 540.062 56.8739 538.877 57.1432C537.692 57.3587 536.426 57.4664 535.079 57.4664L523.686 57.5472C524.225 59.2709 525.195 60.6445 526.595 61.668C527.996 62.6376 529.773 63.1224 531.928 63.1224C534.244 63.1224 536.614 62.8261 539.038 62.2336C540.062 61.9643 541.166 61.5333 542.351 60.9408C543.59 60.3483 544.479 60.052 545.018 60.052C545.933 60.052 546.634 60.3213 547.118 60.86C547.657 61.3987 547.926 62.072 547.926 62.88C547.926 63.8496 547.495 65.0347 546.634 66.4352C545.772 67.7819 544.56 69.1555 542.998 70.556C541.489 71.9027 539.469 73.0608 536.938 74.0304C534.406 75 531.686 75.4848 528.777 75.4848ZM523.282 52.376C526.999 52.3221 529.019 52.2952 529.342 52.2952C530.15 52.2952 530.743 51.8104 531.12 50.8408C531.389 50.1405 531.524 49.1709 531.524 47.932C531.524 44.5384 530.5 42.8416 528.454 42.8416C527.699 42.8416 526.945 43.2456 526.191 44.0536C525.491 44.8616 524.871 46.0197 524.333 47.528C523.794 48.9824 523.444 50.5984 523.282 52.376Z" fill="#2E2E2E"/>
</svg>
