<svg width="963" height="743" viewBox="0 0 963 743" fill="none" xmlns="http://www.w3.org/2000/svg">
<g filter="url(#filter0_d_740_1220)">
<path d="M0 360C0 249.543 89.543 160 200 160H758C868.457 160 958 249.543 958 360V688C958 710.091 940.091 728 918 728H40C17.9086 728 0 710.091 0 688V360Z" fill="white"/>
</g>
<path d="M371.537 109.487C367.539 94.3533 378.951 79.5352 394.604 79.5352H549.173C559.468 79.5352 568.601 86.1378 571.829 95.913L597.825 174.646C602.922 190.082 591.426 205.984 575.17 205.984H415.401C404.571 205.984 395.1 198.69 392.334 188.219L371.537 109.487Z" fill="#9ED4A3"/>
<path d="M427.662 203.598C428.523 208.364 427.662 208.3 427.662 213.119C427.662 218.028 427.041 222.909 427.041 227.835C427.041 231.138 426.73 234.324 426.73 237.711" stroke="black" stroke-width="7.1575" stroke-linecap="round"/>
<path d="M427.351 232.491C422.388 229.981 416.375 230.018 410.83 230.018C407.476 230.018 399.414 229.713 399.414 234.14C399.414 238.04 408.156 239.311 411.589 239.36C416.832 239.435 422.098 239.445 427.04 237.986" stroke="black" stroke-width="7.1575" stroke-linecap="round"/>
<path d="M562.065 203.6C561.132 208.366 562.065 208.302 562.065 213.121C562.065 218.03 562.738 222.911 562.738 227.836C562.738 231.14 563.074 234.326 563.074 237.713" stroke="black" stroke-width="7.1575" stroke-linecap="round"/>
<path d="M562.403 232.492C567.78 229.982 574.293 230.019 580.3 230.019C583.934 230.019 592.668 229.714 592.668 234.141C592.668 238.041 583.198 239.312 579.478 239.361C573.799 239.436 568.094 239.446 562.739 237.987" stroke="black" stroke-width="7.1575" stroke-linecap="round"/>
<circle cx="415.709" cy="138.774" r="9.13645" fill="black"/>
<circle cx="554.088" cy="141.159" r="9.13645" fill="black"/>
<path d="M457.867 140.374C467.501 149.568 495.222 157.582 516.32 140.374" stroke="black" stroke-width="7.1575" stroke-linecap="round"/>
<rect x="690.229" y="3.75879" width="125.885" height="236.034" rx="22.4795" transform="rotate(8.00829 690.229 3.75879)" fill="#FF717F"/>
<ellipse rx="7.78563" ry="8.60841" transform="matrix(-0.990248 -0.139316 -0.139316 0.990248 773.353 126.299)" fill="black"/>
<ellipse rx="7.78563" ry="8.60841" transform="matrix(-0.990248 -0.139316 -0.139316 0.990248 703.829 109.708)" fill="black"/>
<path d="M713.546 128.487C735.598 136.401 740.998 136.562 761.859 139.53" stroke="black" stroke-width="6.74384" stroke-linecap="round"/>
<path d="M739.27 139.11C735.657 169.707 752.046 162.343 755.314 139.717" stroke="black" stroke-width="6.74384" stroke-linecap="round"/>
<path d="M759.454 241.239C759.487 249.845 756.478 258.379 756.617 266.904C756.658 269.471 756.417 271.826 756.059 274.372C755.759 276.503 757.939 276.037 759.454 276.25C762.749 276.714 779.811 274.214 779.271 280.439C778.691 287.121 771.771 284.285 767.416 283.673C763.684 283.148 756.857 282.181 755.576 277.806" stroke="black" stroke-width="6.74384" stroke-linecap="round"/>
<path d="M674.525 223.688C670.405 225.696 666.683 228.745 662.242 229.974C658.521 231.004 654.678 232.278 650.913 232.971C648.052 233.498 644.84 234.917 641.97 234.514" stroke="black" stroke-width="6.74384" stroke-linecap="round"/>
<path d="M641.441 232.591C642.196 227.222 642.962 221.689 642.238 216.315C642.076 215.109 641.638 213.326 640.854 212.433C640.377 211.89 639.628 211.096 639.289 210.456C639.011 209.929 638.095 209.997 637.608 209.928C636.784 209.812 636.211 210.589 635.807 211.227C635.235 212.131 634.484 212.925 633.933 213.875C633.43 214.739 633.213 216.216 633.074 217.204C632.797 219.177 632.044 221.705 632.43 223.657C632.817 225.621 632.963 227.719 633.434 229.621C633.547 230.079 633.91 230.874 633.894 231.335C633.877 231.844 634.409 232.255 634.395 232.764C634.356 234.22 640.336 233.92 641.081 233.899" stroke="black" stroke-width="6.74384" stroke-linecap="round"/>
<rect x="144.305" y="79.2861" width="164.099" height="164.099" rx="20.6414" transform="rotate(-10.8144 144.305 79.2861)" fill="#AC9AF4"/>
<circle cx="174.171" cy="136.625" r="8.25656" transform="rotate(-10.8144 174.171 136.625)" fill="black"/>
<circle cx="300.946" cy="129.221" r="8.25656" transform="rotate(-10.8144 300.946 129.221)" fill="black"/>
<path d="M211.275 141.095C223.725 160.432 250.396 169.872 268.267 139.665" stroke="black" stroke-width="10.3207" stroke-linecap="round"/>
<path d="M213.152 230.017C210.824 239.136 212.121 248.97 209.69 257.975C208.958 260.687 208.618 263.248 208.366 266.042C208.155 268.379 205.694 267.319 203.842 267.152C199.813 266.788 180.252 259.704 179.237 266.447C178.148 273.685 187.105 272.475 192.429 272.956C196.993 273.369 205.343 274.117 208.025 269.808" stroke="black" stroke-width="7.35694" stroke-linecap="round"/>
<path d="M309.215 210.029C312.725 214.107 315.435 219.373 319.567 222.571C323.029 225.25 326.526 228.286 330.158 230.551C332.92 232.271 335.709 235.264 338.826 235.796" stroke="black" stroke-width="7.35694" stroke-linecap="round"/>
<path d="M340.088 233.527C341.309 226.372 342.579 219.006 345.331 212.386C345.948 210.901 347.065 208.777 348.209 207.92C348.904 207.398 349.974 206.655 350.563 205.958C351.047 205.386 351.968 205.807 352.497 205.897C353.391 206.05 353.695 207.254 353.874 208.22C354.129 209.587 354.608 210.878 354.824 212.296C355.021 213.587 354.695 215.558 354.471 216.874C354.022 219.503 353.858 223.017 352.731 225.377C351.598 227.751 350.665 230.385 349.471 232.649C349.183 233.194 348.511 234.08 348.355 234.676C348.183 235.334 347.48 235.667 347.305 236.324C346.803 238.203 340.734 235.633 339.972 235.333" stroke="black" stroke-width="7.35694" stroke-linecap="round"/>
<defs>
<filter id="filter0_d_740_1220" x="0" y="160" width="963" height="583" filterUnits="userSpaceOnUse" color-interpolation-filters="sRGB">
<feFlood flood-opacity="0" result="BackgroundImageFix"/>
<feColorMatrix in="SourceAlpha" type="matrix" values="0 0 0 0 0 0 0 0 0 0 0 0 0 0 0 0 0 0 127 0" result="hardAlpha"/>
<feOffset dx="5" dy="15"/>
<feComposite in2="hardAlpha" operator="out"/>
<feColorMatrix type="matrix" values="0 0 0 0 0 0 0 0 0 0 0 0 0 0 0 0 0 0 0.1 0"/>
<feBlend mode="normal" in2="BackgroundImageFix" result="effect1_dropShadow_740_1220"/>
<feBlend mode="normal" in="SourceGraphic" in2="effect1_dropShadow_740_1220" result="shape"/>
</filter>
</defs>
</svg>
