<svg width="972" height="741" viewBox="0 0 972 741" fill="none" xmlns="http://www.w3.org/2000/svg">
<g clip-path="url(#clip0_729_1213)" filter="url(#filter0_d_729_1213)">
<g filter="url(#filter1_d_729_1213)">
<path fill-rule="evenodd" clip-rule="evenodd" d="M961.638 344.608V688.166C961.638 709.975 941.633 727.655 916.955 727.655H583.668C583.644 727.77 583.619 727.885 583.594 728H385.257C385.232 727.885 385.207 727.77 385.183 727.655H53.6828C29.0052 727.655 9 709.975 9 688.166V339.079C9 335.282 9.60653 331.61 10.7386 328.134C20.1493 236.841 107.002 165.326 212.754 165.326H759.672C871.708 165.326 962.532 245.593 962.532 344.608H961.638Z" fill="white"/>
</g>
<path d="M378.841 109.487C374.844 94.3533 386.256 79.5352 401.909 79.5352H556.478C566.772 79.5352 575.906 86.1378 579.133 95.913L605.13 174.646C610.227 190.082 598.731 205.984 582.475 205.984H422.706C411.876 205.984 402.405 198.69 399.639 188.219L378.841 109.487Z" fill="#9ED4A3"/>
<path d="M434.966 203.598C435.828 208.364 434.966 208.3 434.966 213.119C434.966 218.028 434.346 222.909 434.346 227.835C434.346 231.138 434.035 234.324 434.035 237.711" stroke="black" stroke-width="7.1575" stroke-linecap="round"/>
<path d="M434.656 232.491C429.693 229.981 423.68 230.018 418.135 230.018C414.781 230.018 406.719 229.713 406.719 234.14C406.719 238.04 415.46 239.311 418.894 239.36C424.136 239.435 429.402 239.445 434.345 237.986" stroke="black" stroke-width="7.1575" stroke-linecap="round"/>
<path d="M569.37 203.6C568.437 208.366 569.37 208.302 569.37 213.121C569.37 218.03 570.043 222.911 570.043 227.836C570.043 231.14 570.379 234.326 570.379 237.713" stroke="black" stroke-width="7.1575" stroke-linecap="round"/>
<path d="M569.708 232.492C575.084 229.982 581.598 230.019 587.605 230.019C591.238 230.019 599.973 229.714 599.973 234.141C599.973 238.041 590.502 239.312 586.783 239.361C581.103 239.436 575.399 239.446 570.044 237.987" stroke="black" stroke-width="7.1575" stroke-linecap="round"/>
<circle cx="423.013" cy="138.774" r="9.13645" fill="black"/>
<circle cx="561.392" cy="141.159" r="9.13645" fill="black"/>
<path d="M465.172 140.374C474.806 149.568 502.527 157.582 523.625 140.374" stroke="black" stroke-width="7.1575" stroke-linecap="round"/>
<rect x="697.533" y="3.75879" width="125.885" height="236.034" rx="22.4795" transform="rotate(8.00829 697.533 3.75879)" fill="#FF717F"/>
<ellipse rx="7.78563" ry="8.60841" transform="matrix(-0.990248 -0.139316 -0.139316 0.990248 780.657 126.3)" fill="black"/>
<ellipse rx="7.78563" ry="8.60841" transform="matrix(-0.990248 -0.139316 -0.139316 0.990248 711.134 109.709)" fill="black"/>
<path d="M720.851 128.488C742.903 136.402 748.303 136.563 769.164 139.531" stroke="black" stroke-width="6.74384" stroke-linecap="round"/>
<path d="M746.575 139.111C742.962 169.708 759.35 162.344 762.619 139.718" stroke="black" stroke-width="6.74384" stroke-linecap="round"/>
<path d="M766.758 241.24C766.792 249.846 763.783 258.38 763.921 266.905C763.963 269.472 763.722 271.827 763.363 274.373C763.064 276.504 765.244 276.038 766.758 276.251C770.054 276.715 787.116 274.215 786.575 280.44C785.995 287.122 779.075 284.286 774.721 283.674C770.989 283.149 764.162 282.182 762.88 277.807" stroke="black" stroke-width="6.74384" stroke-linecap="round"/>
<path d="M681.83 223.688C677.71 225.696 673.988 228.745 669.546 229.974C665.826 231.004 661.982 232.278 658.218 232.971C655.356 233.498 652.145 234.917 649.275 234.514" stroke="black" stroke-width="6.74384" stroke-linecap="round"/>
<path d="M648.745 232.591C649.501 227.222 650.267 221.689 649.543 216.315C649.381 215.109 648.943 213.326 648.159 212.433C647.682 211.89 646.932 211.096 646.594 210.456C646.315 209.929 645.4 209.997 644.913 209.928C644.089 209.812 643.516 210.589 643.111 211.227C642.539 212.131 641.789 212.925 641.237 213.875C640.735 214.739 640.518 216.216 640.379 217.204C640.101 219.177 639.349 221.705 639.734 223.657C640.122 225.621 640.268 227.719 640.738 229.621C640.851 230.079 641.215 230.874 641.199 231.335C641.182 231.844 641.714 232.255 641.7 232.764C641.661 234.22 647.641 233.92 648.386 233.899" stroke="black" stroke-width="6.74384" stroke-linecap="round"/>
<rect x="151.609" y="79.2866" width="164.099" height="164.099" rx="20.6414" transform="rotate(-10.8144 151.609 79.2866)" fill="#AC9AF4"/>
<circle cx="181.475" cy="136.625" r="8.25656" transform="rotate(-10.8144 181.475 136.625)" fill="black"/>
<circle cx="308.251" cy="129.221" r="8.25656" transform="rotate(-10.8144 308.251 129.221)" fill="black"/>
<path d="M218.58 141.095C231.03 160.432 257.701 169.872 275.572 139.665" stroke="black" stroke-width="10.3207" stroke-linecap="round"/>
<path d="M220.457 230.018C218.128 239.137 219.426 248.971 216.995 257.976C216.263 260.688 215.923 263.249 215.67 266.043C215.459 268.38 212.998 267.32 211.147 267.153C207.117 266.789 187.556 259.705 186.542 266.448C185.453 273.686 194.41 272.476 199.734 272.957C204.297 273.37 212.647 274.118 215.33 269.809" stroke="black" stroke-width="7.35694" stroke-linecap="round"/>
<path d="M316.517 210.029C320.027 214.107 322.737 219.373 326.869 222.571C330.331 225.25 333.828 228.286 337.46 230.551C340.221 232.271 343.011 235.264 346.127 235.796" stroke="black" stroke-width="7.35694" stroke-linecap="round"/>
<path d="M347.39 233.527C348.611 226.372 349.881 219.006 352.632 212.386C353.25 210.901 354.367 208.777 355.51 207.92C356.206 207.398 357.276 206.655 357.865 205.958C358.349 205.386 359.27 205.807 359.799 205.897C360.693 206.05 360.996 207.254 361.176 208.22C361.431 209.587 361.91 210.878 362.126 212.296C362.323 213.587 361.997 215.558 361.772 216.874C361.324 219.503 361.159 223.017 360.033 225.377C358.9 227.751 357.967 230.385 356.772 232.649C356.485 233.194 355.813 234.08 355.657 234.676C355.485 235.334 354.782 235.667 354.607 236.324C354.105 238.203 348.036 235.633 347.274 235.333" stroke="black" stroke-width="7.35694" stroke-linecap="round"/>
</g>
<defs>
<filter id="filter0_d_729_1213" x="0.0634327" y="-5.36194" width="975.873" height="745.873" filterUnits="userSpaceOnUse" color-interpolation-filters="sRGB">
<feFlood flood-opacity="0" result="BackgroundImageFix"/>
<feColorMatrix in="SourceAlpha" type="matrix" values="0 0 0 0 0 0 0 0 0 0 0 0 0 0 0 0 0 0 127 0" result="hardAlpha"/>
<feOffset dy="3.57463"/>
<feGaussianBlur stdDeviation="4.46828"/>
<feComposite in2="hardAlpha" operator="out"/>
<feColorMatrix type="matrix" values="0 0 0 0 0 0 0 0 0 0 0 0 0 0 0 0 0 0 0.1 0"/>
<feBlend mode="normal" in2="BackgroundImageFix" result="effect1_dropShadow_729_1213"/>
<feBlend mode="normal" in="SourceGraphic" in2="effect1_dropShadow_729_1213" result="shape"/>
</filter>
<filter id="filter1_d_729_1213" x="9" y="165.326" width="958" height="577.866" filterUnits="userSpaceOnUse" color-interpolation-filters="sRGB">
<feFlood flood-opacity="0" result="BackgroundImageFix"/>
<feColorMatrix in="SourceAlpha" type="matrix" values="0 0 0 0 0 0 0 0 0 0 0 0 0 0 0 0 0 0 127 0" result="hardAlpha"/>
<feOffset dx="4.46828" dy="15.1922"/>
<feComposite in2="hardAlpha" operator="out"/>
<feColorMatrix type="matrix" values="0 0 0 0 0.890196 0 0 0 0 0.890196 0 0 0 0 0.890196 0 0 0 1 0"/>
<feBlend mode="normal" in2="BackgroundImageFix" result="effect1_dropShadow_729_1213"/>
<feBlend mode="normal" in="SourceGraphic" in2="effect1_dropShadow_729_1213" result="shape"/>
</filter>
<clipPath id="clip0_729_1213">
<rect width="958" height="728" fill="white" transform="translate(9)"/>
</clipPath>
</defs>
</svg>
