<svg width="971" height="741" viewBox="0 0 971 741" fill="none" xmlns="http://www.w3.org/2000/svg">
<g clip-path="url(#clip0_729_1267)" filter="url(#filter0_d_729_1267)">
<g filter="url(#filter1_d_729_1267)">
<path fill-rule="evenodd" clip-rule="evenodd" d="M960.639 344.282V687.84C960.639 709.649 940.655 727.329 916.003 727.329H583.065C583.041 727.444 583.016 727.559 582.991 727.674H384.862C384.837 727.559 384.813 727.444 384.788 727.329H53.636C28.9842 727.329 9 709.649 9 687.84V338.753C9 334.956 9.60589 331.284 10.7368 327.808C20.1376 236.515 106.899 165 212.54 165H758.884C870.803 165 961.532 245.267 961.532 344.282H960.639Z" fill="white"/>
</g>
<path d="M743.437 34.5427C754.732 19.5444 778.028 22.3985 785.369 39.6801L851.438 195.214C858.779 212.496 844.66 231.244 826.023 228.96L658.292 208.411C639.655 206.127 630.479 184.526 641.775 169.527L743.437 34.5427Z" fill="#FFCD59"/>
<path d="M710.437 206.979C702.465 211.938 693.541 215.362 685.542 220.32C680.823 223.244 675.584 225.064 670.955 228.095" stroke="black" stroke-width="7.64315" stroke-linecap="round"/>
<path d="M673.171 226.054C674.328 222.809 674.379 221.568 672.543 218.764C670.909 216.268 669.366 212.8 666.91 211.067C664.394 209.291 662.275 207.301 659.546 205.952C658.852 205.609 656.704 204.963 656.023 205.297C654.315 206.134 654.561 205.649 654.231 207.787C653.86 210.195 656.067 212.599 657.262 214.424C660.252 218.99 664.33 222.504 667.253 226.967" stroke="black" stroke-width="7.64315" stroke-linecap="round"/>
<path d="M779.234 214.36C776.764 223.868 775.142 234.037 773.817 243.761C773.519 245.953 773.271 247.939 772.531 249.943C772.093 251.127 771.216 252.485 771.045 253.744" stroke="black" stroke-width="7.64315" stroke-linecap="round"/>
<path d="M774.011 254.79C769.294 251.092 761.516 249.025 755.478 249.293C753.439 249.384 751.598 250.864 749.77 251.016C748.426 251.129 747.222 255.503 748.368 255.799C749.5 256.091 750.182 257.046 751.426 257.216C753.017 257.432 754.608 257.649 756.2 257.866C759.691 258.341 763.775 259.122 767.245 258.37C769.084 257.971 770.926 258.363 772.783 258.096C773.82 257.947 771.619 254.231 771.132 253.898" stroke="black" stroke-width="7.64315" stroke-linecap="round"/>
<path d="M703.267 126.361C707.472 120.969 717.55 113.933 724.22 128.928" stroke="black" stroke-width="9.57941" stroke-linecap="round"/>
<path d="M791.891 136.274C795.588 131.533 804.45 125.346 810.315 138.531" stroke="black" stroke-width="9.57941" stroke-linecap="round"/>
<path d="M743.225 135.428C743.704 151.071 770.563 166.484 778.837 138.059" stroke="black" stroke-width="9.57941" stroke-linecap="round"/>
<rect x="133.039" y="55.8291" width="172.333" height="172.333" rx="21.6771" transform="rotate(-10.2362 133.039 55.8291)" fill="#FF717F"/>
<circle cx="163.795" cy="116.358" r="8.67085" transform="rotate(-10.2362 163.795 116.358)" fill="black"/>
<circle cx="297.002" cy="109.927" r="8.67085" transform="rotate(-10.2362 297.002 109.927)" fill="black"/>
<path d="M202.711 121.446C215.58 141.884 243.487 152.081 262.574 120.549" stroke="black" stroke-width="10.8386" stroke-linecap="round"/>
<path d="M280.49 197.779C280.287 203.59 281.378 203.338 282.288 209.035C283.215 214.837 284.932 220.48 285.862 226.301C286.486 230.206 287.485 233.909 288.125 237.912" stroke="black" stroke-width="8.56773" stroke-linecap="round"/>
<path d="M286.346 231.867C292.227 227.885 299.933 226.699 307.034 225.565C311.329 224.878 321.596 222.868 322.432 228.101C323.168 232.711 312.214 236.002 307.827 236.762C301.128 237.923 294.386 239.012 287.781 238.3" stroke="black" stroke-width="8.56773" stroke-linecap="round"/>
<path d="M223.537 205.12C226.006 210.384 224.903 210.581 226.303 216.177C227.729 221.877 228.366 227.741 229.797 233.46C230.757 237.296 231.292 241.094 232.276 245.026" stroke="black" stroke-width="8.56773" stroke-linecap="round"/>
<path d="M231.539 238.769C224.566 237.416 217.014 239.352 210.038 241.098C205.819 242.153 195.587 244.336 196.874 249.477C198.007 254.006 209.373 252.731 213.706 251.707C220.324 250.144 226.951 248.498 232.745 245.248" stroke="black" stroke-width="8.56773" stroke-linecap="round"/>
<circle cx="485.5" cy="108.5" r="102.5" fill="#88C5FF"/>
<circle cx="549.301" cy="100.133" r="8.36735" fill="black"/>
<circle cx="423.791" cy="100.133" r="8.36735" fill="black"/>
<path d="M503.536 118.261C503.372 118.097 503.133 117.946 502.901 117.82C501.828 116.931 500.064 117.36 498.749 117.36C496.913 117.36 495.123 117.845 493.436 118.383C492.481 118.687 491.51 118.821 490.616 119.32C490.093 119.612 489.517 119.928 488.943 120.071C488.428 120.198 488.02 120.768 487.501 120.836C487.211 120.874 486.423 121.464 486.174 121.68C485.782 122.021 485.458 122.647 485.219 123.153C484.82 124 485.132 125.443 485.45 126.243C485.661 126.772 486.201 127.156 486.578 127.53C486.938 127.887 487.434 127.937 487.789 128.245C488.825 129.144 490.252 129.346 491.487 129.597C492.082 129.718 492.837 129.876 493.384 130.133C493.993 130.419 494.569 130.362 495.224 130.362H495.271C497.375 130.362 499.436 130.362 501.466 129.654C502.304 129.362 503.239 129.111 503.94 128.503C504.439 128.07 505.128 127.711 505.497 127.115C506.087 126.165 506.316 125.12 506.741 124.054C507.232 122.821 506.307 121.352 505.869 120.321C505.633 119.764 504.951 119.637 504.684 119.041C504.521 118.677 503.821 118.546 503.536 118.261Z" fill="black"/>
<path d="M502.498 117.618C502.812 117.767 503.27 117.996 503.536 118.261C503.821 118.546 504.521 118.677 504.684 119.041C504.951 119.637 505.633 119.764 505.869 120.321C506.307 121.352 507.232 122.821 506.741 124.054C506.316 125.12 506.087 126.165 505.497 127.115C505.128 127.711 504.439 128.07 503.94 128.503C503.239 129.111 502.304 129.362 501.466 129.654C499.421 130.368 497.344 130.362 495.224 130.362C494.569 130.362 493.993 130.419 493.384 130.133C492.837 129.876 492.082 129.718 491.487 129.597C490.252 129.346 488.825 129.144 487.789 128.245C487.434 127.937 486.938 127.887 486.578 127.53C486.201 127.156 485.661 126.772 485.45 126.243C485.132 125.443 484.82 124 485.219 123.153C485.458 122.647 485.782 122.021 486.174 121.68C486.423 121.464 487.211 120.874 487.501 120.836C488.02 120.768 488.428 120.198 488.943 120.071C489.517 119.928 490.093 119.612 490.616 119.32C491.51 118.821 492.48 118.687 493.436 118.383C495.123 117.845 496.913 117.36 498.749 117.36C500.461 117.36 502.935 116.633 503.652 119.034" stroke="black" stroke-width="6.55499" stroke-linecap="round"/>
<path d="M460.248 199C461.109 203.767 460.248 203.703 460.248 208.522C460.248 213.43 459.627 218.312 459.627 223.237C459.627 226.541 459.316 229.727 459.316 233.113" stroke="black" stroke-width="7.1575" stroke-linecap="round"/>
<path d="M459.937 227.893C454.974 225.383 448.961 225.42 443.416 225.42C440.062 225.42 432 225.115 432 229.542C432 233.442 440.742 234.713 444.175 234.762C449.418 234.837 454.684 234.847 459.626 233.389" stroke="black" stroke-width="7.1575" stroke-linecap="round"/>
<path d="M523.439 192.955C525.09 198.531 526.045 197.945 528.715 203.059C531.434 208.267 534.853 213.074 537.581 218.3C539.412 221.806 541.534 225 543.41 228.593" stroke="black" stroke-width="8.56773" stroke-linecap="round"/>
<path d="M539.806 223.425C544.12 217.783 551.052 214.214 557.426 210.885C561.282 208.872 570.38 203.709 572.833 208.406C574.994 212.545 565.649 219.141 561.73 221.253C555.745 224.479 549.697 227.65 543.207 229.07" stroke="black" stroke-width="8.56773" stroke-linecap="round"/>
</g>
<defs>
<filter id="filter0_d_729_1267" x="-1.93657" y="-1.36194" width="975.873" height="745.873" filterUnits="userSpaceOnUse" color-interpolation-filters="sRGB">
<feFlood flood-opacity="0" result="BackgroundImageFix"/>
<feColorMatrix in="SourceAlpha" type="matrix" values="0 0 0 0 0 0 0 0 0 0 0 0 0 0 0 0 0 0 127 0" result="hardAlpha"/>
<feOffset dy="3.57463"/>
<feGaussianBlur stdDeviation="4.46828"/>
<feComposite in2="hardAlpha" operator="out"/>
<feColorMatrix type="matrix" values="0 0 0 0 0 0 0 0 0 0 0 0 0 0 0 0 0 0 0.1 0"/>
<feBlend mode="normal" in2="BackgroundImageFix" result="effect1_dropShadow_729_1267"/>
<feBlend mode="normal" in="SourceGraphic" in2="effect1_dropShadow_729_1267" result="shape"/>
</filter>
<filter id="filter1_d_729_1267" x="9" y="165" width="957" height="577.866" filterUnits="userSpaceOnUse" color-interpolation-filters="sRGB">
<feFlood flood-opacity="0" result="BackgroundImageFix"/>
<feColorMatrix in="SourceAlpha" type="matrix" values="0 0 0 0 0 0 0 0 0 0 0 0 0 0 0 0 0 0 127 0" result="hardAlpha"/>
<feOffset dx="4.46828" dy="15.1922"/>
<feComposite in2="hardAlpha" operator="out"/>
<feColorMatrix type="matrix" values="0 0 0 0 0.890196 0 0 0 0 0.890196 0 0 0 0 0.890196 0 0 0 1 0"/>
<feBlend mode="normal" in2="BackgroundImageFix" result="effect1_dropShadow_729_1267"/>
<feBlend mode="normal" in="SourceGraphic" in2="effect1_dropShadow_729_1267" result="shape"/>
</filter>
<clipPath id="clip0_729_1267">
<rect width="958" height="728" fill="white" transform="translate(7 4)"/>
</clipPath>
</defs>
</svg>
