<svg width="809" height="209" viewBox="0 0 809 209" fill="none" xmlns="http://www.w3.org/2000/svg">
<path d="M215.949 113.276C211.933 102.637 219.077 91.0778 230.389 89.9117L342.097 78.3956C349.537 77.6287 356.63 81.72 359.691 88.5441L384.344 143.508C389.178 154.284 382.055 166.633 370.306 167.845L254.84 179.748C247.013 180.555 239.625 175.989 236.846 168.628L215.949 113.276Z" fill="#9ED4A3"/>
<path d="M263.521 177.11C264.499 180.491 263.871 180.509 264.231 183.992C264.596 187.539 264.511 191.113 264.878 194.673C265.124 197.06 265.137 199.386 265.39 201.833" stroke="black" stroke-width="5.20019" stroke-linecap="round"/>
<path d="M265.449 198.015C261.676 196.57 257.333 197.045 253.326 197.458C250.902 197.708 245.052 198.088 245.382 201.287C245.673 204.106 252.085 204.374 254.57 204.153C258.365 203.817 262.171 203.431 265.634 202.009" stroke="black" stroke-width="5.20019" stroke-linecap="round"/>
<path d="M360.657 167.097C360.338 170.611 361.007 170.495 361.366 173.978C361.732 177.526 362.582 181.003 362.949 184.563C363.195 186.95 363.675 189.228 363.928 191.675" stroke="black" stroke-width="5.20019" stroke-linecap="round"/>
<path d="M363.053 187.952C366.751 185.738 371.461 185.279 375.803 184.832C378.429 184.561 384.718 183.69 385.048 186.889C385.339 189.708 378.589 191.332 375.905 191.645C371.806 192.122 367.684 192.554 363.705 191.899" stroke="black" stroke-width="5.20019" stroke-linecap="round"/>
<circle cx="250.053" cy="131.152" r="6.63797" transform="rotate(-5.88584 250.053 131.152)" fill="black"/>
<circle cx="350.238" cy="122.566" r="6.63797" transform="rotate(-5.88584 350.238 122.566)" fill="black"/>
<path d="M280.641 129.167C288.288 135.094 308.92 138.82 322.885 124.812" stroke="black" stroke-width="5.20019" stroke-linecap="round"/>
<rect x="447.802" width="97.0703" height="182.007" rx="17.334" fill="#FF717F"/>
<ellipse rx="6.00352" ry="6.63797" transform="matrix(-1 0 0 1 524.436 84.6409)" fill="black"/>
<ellipse rx="6.00352" ry="6.63797" transform="matrix(-1 0 0 1 469.566 79.4407)" fill="black"/>
<path d="M479.004 92.7365C496.693 96.4108 500.833 95.9536 517.081 95.979" stroke="black" stroke-width="5.20019" stroke-linecap="round"/>
<path d="M499.786 98.0851C500.315 121.836 512.037 114.452 512.103 96.8249" stroke="black" stroke-width="5.20019" stroke-linecap="round"/>
<path d="M526.172 173.9C527.123 180.468 525.742 187.308 526.764 193.803C527.071 195.759 527.14 197.583 527.14 199.565C527.14 201.224 528.755 200.635 529.934 200.635C532.5 200.635 545.26 196.892 545.516 201.704C545.791 206.868 540.202 205.447 536.811 205.447C533.905 205.447 528.588 205.442 527.14 202.239" stroke="black" stroke-width="5.20019" stroke-linecap="round"/>
<path d="M459.438 169.622C456.508 171.598 453.993 174.325 450.734 175.741C448.003 176.927 445.206 178.313 442.405 179.246C440.277 179.956 437.977 181.385 435.743 181.385" stroke="black" stroke-width="5.20019" stroke-linecap="round"/>
<path d="M435.132 179.974C435.132 175.793 435.122 171.486 433.993 167.46C433.739 166.557 433.213 165.242 432.518 164.645C432.096 164.281 431.438 163.755 431.111 163.303C430.842 162.931 430.15 163.081 429.771 163.081C429.129 163.081 428.775 163.735 428.535 164.266C428.195 165.018 427.707 165.704 427.388 166.489C427.097 167.203 427.09 168.354 427.09 169.123C427.09 170.66 426.787 172.671 427.291 174.12C427.798 175.578 428.135 177.165 428.699 178.566C428.834 178.904 429.197 179.472 429.235 179.826C429.276 180.216 429.727 180.473 429.771 180.863C429.897 181.979 434.431 181.107 434.998 181.011" stroke="black" stroke-width="5.20019" stroke-linecap="round"/>
<g style="mix-blend-mode:multiply">
<path d="M655.066 173.367C655.066 173.367 668.479 140.247 679.454 141.73C685.484 142.545 691.425 144.734 691.742 150.488C691.986 154.924 689.302 157.883 685.27 160.346C676.732 165.559 667.767 155.165 665.111 146.174C661.445 133.759 687.768 119.785 687.768 119.785" stroke="#BBE7C0" stroke-width="6.85801"/>
</g>
<g style="mix-blend-mode:multiply">
<path d="M781.436 76.4323C791.931 70.8633 791.512 49.5272 797.724 61.2327C803.935 72.9382 800.463 86.942 789.968 92.5111C779.473 98.0801 765.93 93.1055 759.718 81.4C753.507 69.6944 770.941 82.0014 781.436 76.4323Z" fill="#B6DCFF" fill-opacity="0.7"/>
</g>
<g style="mix-blend-mode:multiply">
<rect x="674.699" y="57.0566" width="19" height="19" rx="2" transform="rotate(-21.8014 674.699 57.0566)" fill="#FFEDC2"/>
</g>
<g style="mix-blend-mode:multiply">
<ellipse cx="13.4999" cy="175.5" rx="13.5" ry="13.5" fill="#FFEDC2"/>
</g>
<g style="mix-blend-mode:multiply">
<rect x="17.3703" y="88.0615" width="18.8705" height="31.4509" transform="rotate(-151.137 17.3703 88.0615)" fill="#FF717F" fill-opacity="0.3"/>
</g>
<g style="mix-blend-mode:multiply">
<path d="M83.4811 142C83.4811 142 80.63 123.685 88.8126 120.035C95.6869 116.968 101.647 130.53 107.295 125.613C113.016 120.633 98.7338 112.743 103.385 106.786C108.281 100.517 124 106.786 124 106.786" stroke="#B6DCFF" stroke-width="7.54822"/>
</g>
</svg>
