<svg width="305" height="211" viewBox="0 0 305 211" fill="none" xmlns="http://www.w3.org/2000/svg">
<rect x="170.803" y="2" width="97.0703" height="182.007" rx="17.334" fill="#88C5FF"/>
<path d="M134 116.395C140.883 112.804 148.412 110.409 155.738 107.894C159.936 106.453 164.247 105.417 168.359 103.78C170.128 103.076 171.88 102.365 173.703 101.834" stroke="black" stroke-width="5.43" stroke-linecap="round"/>
<ellipse rx="6.00352" ry="6.63797" transform="matrix(-1 0 0 1 247.437 86.6409)" fill="black"/>
<ellipse rx="6.00352" ry="6.63797" transform="matrix(-1 0 0 1 192.568 81.4407)" fill="black"/>
<path d="M202.005 94.7365C219.694 98.4108 223.834 97.9536 240.082 97.979" stroke="black" stroke-width="5.20019" stroke-linecap="round"/>
<path d="M222.787 100.085C223.316 123.836 235.038 116.452 235.104 98.8249" stroke="black" stroke-width="5.20019" stroke-linecap="round"/>
<path d="M249.174 175.9C250.124 182.468 248.743 189.308 249.765 195.803C250.072 197.759 250.141 199.583 250.141 201.565C250.141 203.224 251.756 202.635 252.935 202.635C255.501 202.635 268.261 198.892 268.517 203.704C268.792 208.868 263.203 207.447 259.812 207.447C256.906 207.447 251.589 207.442 250.141 204.239" stroke="black" stroke-width="5.20019" stroke-linecap="round"/>
<path d="M182.439 171.622C179.509 173.598 176.994 176.325 173.735 177.741C171.004 178.927 168.207 180.313 165.406 181.246C163.278 181.956 160.978 183.385 158.744 183.385" stroke="black" stroke-width="5.20019" stroke-linecap="round"/>
<path d="M158.133 181.974C158.133 177.793 158.124 173.486 156.994 169.46C156.74 168.557 156.214 167.242 155.519 166.645C155.097 166.281 154.439 165.755 154.112 165.303C153.843 164.931 153.151 165.081 152.772 165.081C152.13 165.081 151.776 165.735 151.536 166.266C151.196 167.018 150.708 167.704 150.389 168.489C150.098 169.203 150.091 170.354 150.091 171.123C150.091 172.66 149.788 174.671 150.292 176.12C150.8 177.578 151.136 179.165 151.7 180.566C151.835 180.904 152.198 181.472 152.236 181.826C152.277 182.216 152.728 182.473 152.772 182.863C152.898 183.979 157.432 183.107 157.999 183.011" stroke="black" stroke-width="5.20019" stroke-linecap="round"/>
<path d="M262.107 112C269.708 113.574 277.054 116.482 284.319 119.17C288.482 120.71 292.476 122.635 296.696 123.969C298.511 124.543 300.318 125.1 302.066 125.843" stroke="black" stroke-width="5.43" stroke-linecap="round"/>
<path d="M53.5006 151.084C74.4299 151.084 91.3965 134.117 91.3965 113.188C91.3965 92.2585 74.4299 75.292 53.5006 75.292C32.5713 75.292 15.6048 92.2585 15.6048 113.188C15.6048 134.117 32.5713 151.084 53.5006 151.084Z" stroke="black" stroke-width="5.43" stroke-linejoin="round"/>
<path d="M53.5006 61.917V70.8337M40.1256 61.917H66.8756H40.1256ZM53.5006 95.3545V113.188V95.3545ZM71.3339 113.188H53.5006H71.3339Z" stroke="black" stroke-width="5.43" stroke-linecap="round" stroke-linejoin="round"/>
</svg>
