<svg width="336" height="208" viewBox="0 0 336 208" fill="none" xmlns="http://www.w3.org/2000/svg">
<g clip-path="url(#clip0_338_1709)">
<path d="M209.224 115.167L209.224 115.167C209.287 115.281 209.372 115.382 209.474 115.462C209.474 115.462 209.475 115.462 209.475 115.462L216.56 121.059C216.56 121.059 216.56 121.059 216.56 121.059C216.708 121.176 216.887 121.247 217.075 121.263C217.262 121.28 217.451 121.24 217.617 121.15C217.782 121.06 217.918 120.924 218.007 120.757C218.096 120.591 218.134 120.402 218.116 120.214L217.283 111.224C217.283 111.224 217.283 111.224 217.283 111.224C217.271 111.094 217.234 110.968 217.172 110.853L217.172 110.853L205.86 90.0121L209.224 115.167ZM209.224 115.167L197.912 94.326L209.224 115.167ZM211.472 113.373L211.472 113.373C211.416 113.561 211.304 113.727 211.151 113.85C211.047 113.933 210.927 113.994 210.8 114.028L210.824 114.073L215.99 118.154L215.383 111.599L215.359 111.554C215.26 111.642 215.145 111.709 215.018 111.751C214.832 111.813 214.631 111.816 214.443 111.76L214.443 111.76L213.759 111.557L213.556 112.241C213.483 112.486 213.316 112.692 213.092 112.814C212.867 112.936 212.604 112.964 212.359 112.891L211.675 112.689L211.472 113.373ZM205.619 89.7224C205.717 89.8022 205.799 89.9006 205.859 90.012L204.552 89.6245C204.663 89.5639 204.785 89.5259 204.911 89.5126C205.037 89.4993 205.165 89.511 205.286 89.547C205.407 89.583 205.521 89.6426 205.619 89.7224ZM198.3 93.0181L204.552 89.6245L198.3 93.0181ZM198.01 93.2585C198.09 93.1601 198.188 93.0784 198.3 93.0181L197.912 94.3258C197.851 94.2146 197.813 94.0925 197.8 93.9665C197.787 93.8405 197.798 93.7131 197.834 93.5916C197.87 93.4701 197.93 93.3569 198.01 93.2585ZM201.409 96.7278L205.968 94.2532L204.625 91.7782L200.066 94.2528L201.409 96.7278ZM214.156 109.337L206.887 95.9463L202.328 98.421L209.597 111.812L209.898 111.901L210.101 111.218C210.174 110.973 210.341 110.766 210.565 110.645C210.79 110.523 211.053 110.495 211.298 110.568L211.982 110.77L212.185 110.086C212.258 109.841 212.425 109.635 212.649 109.513C212.874 109.391 213.138 109.364 213.383 109.436L214.066 109.639L214.156 109.337Z" fill="black" stroke="black" stroke-width="0.25"/>
</g>
<path d="M89.9889 26C96.6605 14.4444 113.34 14.4444 120.011 26L180.056 130C186.727 141.556 178.388 156 165.044 156H44.9556C31.6124 156 23.2729 141.556 29.9445 130L89.9889 26Z" fill="#9ED4A3"/>
<path d="M129.672 152.135C129.827 158.805 131.265 165.443 131.433 172.129C131.531 176.073 132.489 179.896 132.489 183.828" stroke="black" stroke-width="5.43158" stroke-linecap="round"/>
<path d="M132.84 181.715C134.318 179.764 135.036 179.25 137.418 179.25C139.538 179.25 142.2 178.817 144.187 179.602C146.222 180.407 148.23 180.892 150.095 181.989C150.569 182.268 151.789 183.293 151.856 183.828C152.023 185.17 152.216 184.835 151.073 185.863C149.786 187.021 147.498 186.645 145.947 186.645C142.069 186.645 138.392 185.589 134.6 185.589" stroke="black" stroke-width="5.43158" stroke-linecap="round"/>
<path d="M77.0477 152.394C77.8754 159.325 78.0425 166.641 78.0425 173.616C78.0425 175.188 78.0262 176.609 78.3557 178.092C78.5503 178.968 79.0373 180.008 79.0373 180.911" stroke="black" stroke-width="5.43158" stroke-linecap="round"/>
<path d="M76.8477 181.363C80.5238 179.211 86.1989 178.502 90.425 179.27C91.8518 179.529 93.0062 180.748 94.2792 181.031C95.2147 181.239 95.6429 184.434 94.8074 184.533C93.9827 184.63 93.411 185.237 92.5184 185.237C91.3772 185.237 90.2359 185.237 89.0947 185.237C86.5908 185.237 83.6401 185.395 81.2691 184.533C80.0118 184.075 78.6777 184.175 77.3954 183.809C76.6795 183.604 78.5857 181.199 78.9606 181.011" stroke="black" stroke-width="5.43158" stroke-linecap="round"/>
<ellipse rx="7.23689" ry="8.00168" transform="matrix(-0.985675 0.168655 0.168655 0.985675 141.122 97.6096)" fill="black"/>
<ellipse rx="7.23689" ry="8.00168" transform="matrix(-0.985675 0.168655 0.168655 0.985675 74.8696 102.586)" fill="black"/>
<path d="M88.7862 116.466C110.551 117.235 115.377 115.85 134.688 112.577" stroke="black" stroke-width="6.26852" stroke-linecap="round"/>
<path d="M114.567 118.596C120.024 146.709 132.451 135.553 128.945 114.595" stroke="black" stroke-width="6.26852" stroke-linecap="round"/>
<path d="M49.7828 102.922C41.1864 105.071 32.4369 105.509 23.6893 107.115C18.8 108.013 13.8609 109.007 9.01166 110.051C7.01402 110.481 4.87248 111.728 2.81445 111.728" stroke="black" stroke-width="5.43" stroke-linecap="round"/>
<path d="M161.332 102.084C169.095 102.084 176.878 103.442 184.537 104.6C188.925 105.264 193.227 106.34 197.63 106.79C199.523 106.984 201.406 107.163 203.268 107.536" stroke="black" stroke-width="5.43" stroke-linecap="round"/>
<path d="M225.257 133.808C223.871 142.324 228.165 144.808 236.257 144.808C246.702 144.808 250.008 135.238 255.146 127.53C261.783 117.575 267.38 140.092 273.813 141.808C282.437 144.108 292.583 142.947 301.48 142.808C314.037 142.611 323.789 141.469 334.257 134.808" stroke="black" stroke-width="3" stroke-linecap="round"/>
<defs>
<clipPath id="clip0_338_1709">
<rect width="26.8282" height="26.8282" fill="white" transform="matrix(-0.958784 -0.284135 -0.284135 0.958784 225.346 95.623)"/>
</clipPath>
</defs>
</svg>
