<svg width="1920" height="1080" viewBox="0 0 1920 1080" fill="none" xmlns="http://www.w3.org/2000/svg">
<g clip-path="url(#clip0_338_1223)">
<g filter="url(#filter0_d_338_1223)">
<path d="M1718.59 715.344C1714.19 704.86 1720.9 693.048 1732.16 691.466L1951.62 660.649C1959.03 659.609 1966.27 663.438 1969.58 670.146L2028.02 788.619C2033.25 799.211 2026.58 811.811 2014.89 813.453L1787.23 845.422C1779.44 846.516 1771.88 842.224 1768.84 834.969L1718.59 715.344Z" fill="#C1B2FC"/>
</g>
<g filter="url(#filter1_d_338_1223)">
<path d="M305.313 116.779C301.169 101.951 314.632 88.1979 329.545 92.0238L491.142 133.481C506.055 137.306 511.234 155.841 500.465 166.844L383.763 286.063C372.993 297.065 354.352 292.283 350.209 277.455L305.313 116.779Z" fill="#B6DCFF"/>
</g>
<g filter="url(#filter2_d_338_1223)">
<path d="M1655 889.486C1669.53 884.382 1684.13 896.915 1681.29 912.047L1644.5 1107.95C1641.66 1123.08 1623.5 1129.46 1611.82 1119.44L1460.55 989.619C1448.87 979.592 1452.42 960.678 1466.95 955.573L1655 889.486Z" fill="#BBE7C0"/>
</g>
<g filter="url(#filter3_d_338_1223)">
<path d="M1402.22 183.944L1402.14 183.091C1401.24 171.388 1402.68 159.623 1406.38 148.484C1410.08 137.344 1415.97 127.055 1423.7 118.218C1438.53 101.79 1458.92 91.4354 1480.94 89.1536C1502.96 86.8718 1525.04 92.8244 1542.92 105.862C1554.15 114.287 1563.17 125.311 1569.19 137.988C1569.91 139.466 1570.19 141.119 1569.99 142.75C1569.79 144.381 1569.13 145.921 1568.08 147.186C1567.07 148.361 1565.76 149.24 1564.29 149.728C1562.82 150.216 1561.24 150.295 1559.73 149.957C1546.53 146.371 1532.58 146.622 1519.52 150.683C1506.46 154.743 1494.82 162.444 1485.99 172.881C1477.22 183.402 1471.61 196.19 1469.82 209.765C1468.02 223.339 1470.1 237.145 1475.83 249.583C1476.5 251.065 1476.73 252.706 1476.5 254.314C1476.27 255.923 1475.58 257.432 1474.53 258.666C1473.47 259.9 1472.08 260.808 1470.53 261.282C1468.97 261.757 1467.31 261.78 1465.75 261.347C1453.75 257.979 1442.61 252.07 1433.09 244.022C1424.24 236.535 1416.95 227.373 1411.66 217.063C1406.36 206.753 1403.15 195.498 1402.22 183.944Z" fill="#FF9AA4"/>
</g>
<g filter="url(#filter4_d_338_1223)">
<rect x="1673" y="233.994" width="241.266" height="241.266" rx="30" transform="rotate(-42.178 1673 233.994)" fill="#BBE7C0"/>
</g>
<g filter="url(#filter5_d_338_1223)">
<rect x="130.864" y="901" width="209.567" height="209.567" rx="30" transform="rotate(22.106 130.864 901)" fill="#FFE297"/>
</g>
<g filter="url(#filter6_d_338_1223)">
<circle cx="30" cy="494" r="123" fill="#BBE7C0"/>
</g>
<g filter="url(#filter7_d_338_1223)">
<path fill-rule="evenodd" clip-rule="evenodd" d="M1077 1235.93C1169.23 1235.93 1244 1162.07 1244 1070.96C1244 979.857 1169.23 906 1077 906C984.768 906 910 979.857 910 1070.96C910 1162.07 984.768 1235.93 1077 1235.93ZM1076.39 1155.89C1123.85 1155.89 1162.33 1117.69 1162.33 1070.56C1162.33 1023.44 1123.85 985.234 1076.39 985.234C1028.93 985.234 990.453 1023.44 990.453 1070.56C990.453 1117.69 1028.93 1155.89 1076.39 1155.89Z" fill="#FF9AA4"/>
</g>
<g filter="url(#filter8_d_338_1223)">
<path d="M234.871 621.588C240.379 607.1 261.209 608.124 265.268 623.083L274.928 658.677C276.744 665.366 282.66 670.126 289.584 670.467L326.42 672.279C341.901 673.04 347.363 693.167 334.392 701.65L303.525 721.836C297.724 725.63 295.025 732.728 296.841 739.418L306.5 775.012C310.56 789.97 293.107 801.384 281.03 791.669L252.293 768.551C246.892 764.206 239.308 763.833 233.507 767.627L202.64 787.813C189.668 796.296 173.419 783.224 178.927 768.736L192.034 734.262C194.497 727.783 192.508 720.455 187.107 716.11L158.371 692.991C146.294 683.276 153.705 663.783 169.186 664.544L206.023 666.356C212.946 666.697 219.301 662.541 221.765 656.062L234.871 621.588Z" fill="#C1B2FC"/>
</g>
<g filter="url(#filter9_d_338_1223)">
<path d="M920.547 110.374C920.547 110.374 832.209 129.886 811.915 91.1476C794.866 58.6035 859.098 25.4087 833.413 -0.596157C807.396 -26.9371 773.348 45.0585 742.904 24.2295C710.862 2.30791 736.574 -76.1897 736.574 -76.1897" stroke="#FFE297" stroke-width="70" stroke-linecap="round"/>
</g>
</g>
<defs>
<filter id="filter0_d_338_1223" x="1717.23" y="660.48" width="312.594" height="202.112" filterUnits="userSpaceOnUse" color-interpolation-filters="sRGB">
<feFlood flood-opacity="0" result="BackgroundImageFix"/>
<feColorMatrix in="SourceAlpha" type="matrix" values="0 0 0 0 0 0 0 0 0 0 0 0 0 0 0 0 0 0 127 0" result="hardAlpha"/>
<feOffset dy="17"/>
<feComposite in2="hardAlpha" operator="out"/>
<feColorMatrix type="matrix" values="0 0 0 0 0.596563 0 0 0 0 0.501823 0 0 0 0 0.979167 0 0 0 1 0"/>
<feBlend mode="normal" in2="BackgroundImageFix" result="effect1_dropShadow_338_1223"/>
<feBlend mode="normal" in="SourceGraphic" in2="effect1_dropShadow_338_1223" result="shape"/>
</filter>
<filter id="filter1_d_338_1223" x="304.553" y="91.3762" width="201.633" height="217.708" filterUnits="userSpaceOnUse" color-interpolation-filters="sRGB">
<feFlood flood-opacity="0" result="BackgroundImageFix"/>
<feColorMatrix in="SourceAlpha" type="matrix" values="0 0 0 0 0 0 0 0 0 0 0 0 0 0 0 0 0 0 127 0" result="hardAlpha"/>
<feOffset dy="17"/>
<feComposite in2="hardAlpha" operator="out"/>
<feColorMatrix type="matrix" values="0 0 0 0 0.533333 0 0 0 0 0.772549 0 0 0 0 1 0 0 0 1 0"/>
<feBlend mode="normal" in2="BackgroundImageFix" result="effect1_dropShadow_338_1223"/>
<feBlend mode="normal" in="SourceGraphic" in2="effect1_dropShadow_338_1223" result="shape"/>
</filter>
<filter id="filter2_d_338_1223" x="1453.57" y="888.328" width="228.076" height="252.95" filterUnits="userSpaceOnUse" color-interpolation-filters="sRGB">
<feFlood flood-opacity="0" result="BackgroundImageFix"/>
<feColorMatrix in="SourceAlpha" type="matrix" values="0 0 0 0 0 0 0 0 0 0 0 0 0 0 0 0 0 0 127 0" result="hardAlpha"/>
<feOffset dy="17"/>
<feComposite in2="hardAlpha" operator="out"/>
<feColorMatrix type="matrix" values="0 0 0 0 0.619608 0 0 0 0 0.831373 0 0 0 0 0.639216 0 0 0 1 0"/>
<feBlend mode="normal" in2="BackgroundImageFix" result="effect1_dropShadow_338_1223"/>
<feBlend mode="normal" in="SourceGraphic" in2="effect1_dropShadow_338_1223" result="shape"/>
</filter>
<filter id="filter3_d_338_1223" x="1401.88" y="88.6763" width="168.17" height="189.979" filterUnits="userSpaceOnUse" color-interpolation-filters="sRGB">
<feFlood flood-opacity="0" result="BackgroundImageFix"/>
<feColorMatrix in="SourceAlpha" type="matrix" values="0 0 0 0 0 0 0 0 0 0 0 0 0 0 0 0 0 0 127 0" result="hardAlpha"/>
<feOffset dy="17"/>
<feComposite in2="hardAlpha" operator="out"/>
<feColorMatrix type="matrix" values="0 0 0 0 1 0 0 0 0 0.443137 0 0 0 0 0.498039 0 0 0 1 0"/>
<feBlend mode="normal" in2="BackgroundImageFix" result="effect1_dropShadow_338_1223"/>
<feBlend mode="normal" in="SourceGraphic" in2="effect1_dropShadow_338_1223" result="shape"/>
</filter>
<filter id="filter4_d_338_1223" x="1685.37" y="84.3748" width="316.038" height="333.038" filterUnits="userSpaceOnUse" color-interpolation-filters="sRGB">
<feFlood flood-opacity="0" result="BackgroundImageFix"/>
<feColorMatrix in="SourceAlpha" type="matrix" values="0 0 0 0 0 0 0 0 0 0 0 0 0 0 0 0 0 0 127 0" result="hardAlpha"/>
<feOffset dy="17"/>
<feComposite in2="hardAlpha" operator="out"/>
<feColorMatrix type="matrix" values="0 0 0 0 0.619608 0 0 0 0 0.831373 0 0 0 0 0.639216 0 0 0 1 0"/>
<feBlend mode="normal" in2="BackgroundImageFix" result="effect1_dropShadow_338_1223"/>
<feBlend mode="normal" in="SourceGraphic" in2="effect1_dropShadow_338_1223" result="shape"/>
</filter>
<filter id="filter5_d_338_1223" x="61.0762" y="910.076" width="254.873" height="271.873" filterUnits="userSpaceOnUse" color-interpolation-filters="sRGB">
<feFlood flood-opacity="0" result="BackgroundImageFix"/>
<feColorMatrix in="SourceAlpha" type="matrix" values="0 0 0 0 0 0 0 0 0 0 0 0 0 0 0 0 0 0 127 0" result="hardAlpha"/>
<feOffset dy="17"/>
<feComposite in2="hardAlpha" operator="out"/>
<feColorMatrix type="matrix" values="0 0 0 0 1 0 0 0 0 0.713126 0 0 0 0 0.0458333 0 0 0 1 0"/>
<feBlend mode="normal" in2="BackgroundImageFix" result="effect1_dropShadow_338_1223"/>
<feBlend mode="normal" in="SourceGraphic" in2="effect1_dropShadow_338_1223" result="shape"/>
</filter>
<filter id="filter6_d_338_1223" x="-93" y="371" width="246" height="263" filterUnits="userSpaceOnUse" color-interpolation-filters="sRGB">
<feFlood flood-opacity="0" result="BackgroundImageFix"/>
<feColorMatrix in="SourceAlpha" type="matrix" values="0 0 0 0 0 0 0 0 0 0 0 0 0 0 0 0 0 0 127 0" result="hardAlpha"/>
<feOffset dy="17"/>
<feComposite in2="hardAlpha" operator="out"/>
<feColorMatrix type="matrix" values="0 0 0 0 0.619608 0 0 0 0 0.831373 0 0 0 0 0.639216 0 0 0 1 0"/>
<feBlend mode="normal" in2="BackgroundImageFix" result="effect1_dropShadow_338_1223"/>
<feBlend mode="normal" in="SourceGraphic" in2="effect1_dropShadow_338_1223" result="shape"/>
</filter>
<filter id="filter7_d_338_1223" x="910" y="906" width="334" height="346.927" filterUnits="userSpaceOnUse" color-interpolation-filters="sRGB">
<feFlood flood-opacity="0" result="BackgroundImageFix"/>
<feColorMatrix in="SourceAlpha" type="matrix" values="0 0 0 0 0 0 0 0 0 0 0 0 0 0 0 0 0 0 127 0" result="hardAlpha"/>
<feOffset dy="17"/>
<feComposite in2="hardAlpha" operator="out"/>
<feColorMatrix type="matrix" values="0 0 0 0 1 0 0 0 0 0.443137 0 0 0 0 0.498039 0 0 0 1 0"/>
<feBlend mode="normal" in2="BackgroundImageFix" result="effect1_dropShadow_338_1223"/>
<feBlend mode="normal" in="SourceGraphic" in2="effect1_dropShadow_338_1223" result="shape"/>
</filter>
<filter id="filter8_d_338_1223" x="152.361" y="611.272" width="189.296" height="200.999" filterUnits="userSpaceOnUse" color-interpolation-filters="sRGB">
<feFlood flood-opacity="0" result="BackgroundImageFix"/>
<feColorMatrix in="SourceAlpha" type="matrix" values="0 0 0 0 0 0 0 0 0 0 0 0 0 0 0 0 0 0 127 0" result="hardAlpha"/>
<feOffset dy="17"/>
<feComposite in2="hardAlpha" operator="out"/>
<feColorMatrix type="matrix" values="0 0 0 0 0.596563 0 0 0 0 0.501823 0 0 0 0 0.979167 0 0 0 1 0"/>
<feBlend mode="normal" in2="BackgroundImageFix" result="effect1_dropShadow_338_1223"/>
<feBlend mode="normal" in="SourceGraphic" in2="effect1_dropShadow_338_1223" result="shape"/>
</filter>
<filter id="filter9_d_338_1223" x="691.814" y="-111.199" width="268.741" height="278.487" filterUnits="userSpaceOnUse" color-interpolation-filters="sRGB">
<feFlood flood-opacity="0" result="BackgroundImageFix"/>
<feColorMatrix in="SourceAlpha" type="matrix" values="0 0 0 0 0 0 0 0 0 0 0 0 0 0 0 0 0 0 127 0" result="hardAlpha"/>
<feOffset dx="5" dy="17"/>
<feComposite in2="hardAlpha" operator="out"/>
<feColorMatrix type="matrix" values="0 0 0 0 1 0 0 0 0 0.713726 0 0 0 0 0.0470588 0 0 0 1 0"/>
<feBlend mode="normal" in2="BackgroundImageFix" result="effect1_dropShadow_338_1223"/>
<feBlend mode="normal" in="SourceGraphic" in2="effect1_dropShadow_338_1223" result="shape"/>
</filter>
<clipPath id="clip0_338_1223">
<rect width="1920" height="1080" fill="white"/>
</clipPath>
</defs>
</svg>
