<svg width="2440" height="1582" viewBox="0 0 2440 1582" fill="none" xmlns="http://www.w3.org/2000/svg">
<g filter="url(#filter0_d_338_1430)">
<path d="M1946.59 918.344C1942.19 907.86 1948.9 896.048 1960.16 894.466L2179.62 863.649C2187.03 862.609 2194.27 866.438 2197.58 873.146L2256.02 991.619C2261.25 1002.21 2254.58 1014.81 2242.89 1016.45L2015.23 1048.42C2007.44 1049.52 1999.88 1045.22 1996.84 1037.97L1946.59 918.344Z" fill="#C1B2FC"/>
</g>
<g filter="url(#filter1_d_338_1430)">
<path d="M533.313 319.779C529.169 304.951 542.632 291.198 557.545 295.024L719.142 336.481C734.055 340.306 739.234 358.841 728.465 369.844L611.763 489.063C600.993 500.065 582.352 495.283 578.209 480.455L533.313 319.779Z" fill="#B6DCFF"/>
</g>
<g filter="url(#filter2_d_338_1430)">
<path d="M1883 1092.49C1897.53 1087.38 1912.13 1099.92 1909.29 1115.05L1872.5 1310.95C1869.66 1326.08 1851.5 1332.46 1839.82 1322.44L1688.55 1192.62C1676.87 1182.59 1680.42 1163.68 1694.95 1158.57L1883 1092.49Z" fill="#BBE7C0"/>
</g>
<g filter="url(#filter3_d_338_1430)">
<path d="M1630.22 386.944L1630.14 386.091C1629.24 374.388 1630.68 362.623 1634.38 351.484C1638.08 340.344 1643.97 330.055 1651.7 321.218C1666.53 304.79 1686.92 294.435 1708.94 292.154C1730.96 289.872 1753.04 295.824 1770.92 308.862C1782.15 317.287 1791.17 328.311 1797.19 340.988C1797.91 342.466 1798.19 344.119 1797.99 345.75C1797.79 347.381 1797.13 348.921 1796.08 350.186C1795.07 351.361 1793.76 352.24 1792.29 352.728C1790.82 353.216 1789.24 353.295 1787.73 352.957C1774.53 349.371 1760.58 349.622 1747.52 353.683C1734.46 357.743 1722.82 365.444 1713.99 375.881C1705.22 386.402 1699.61 399.19 1697.82 412.765C1696.02 426.339 1698.1 440.145 1703.83 452.583C1704.5 454.065 1704.73 455.706 1704.5 457.314C1704.27 458.923 1703.58 460.432 1702.53 461.666C1701.47 462.9 1700.08 463.808 1698.53 464.282C1696.97 464.757 1695.31 464.78 1693.75 464.347C1681.75 460.979 1670.61 455.07 1661.09 447.022C1652.24 439.535 1644.95 430.373 1639.66 420.063C1634.36 409.753 1631.15 398.498 1630.22 386.944Z" fill="#FF9AA4"/>
</g>
<g filter="url(#filter4_d_338_1430)">
<rect x="1901" y="436.994" width="241.266" height="241.266" rx="30" transform="rotate(-42.178 1901 436.994)" fill="#BBE7C0"/>
</g>
<g filter="url(#filter5_d_338_1430)">
<rect x="358.864" y="1104" width="209.567" height="209.567" rx="30" transform="rotate(22.106 358.864 1104)" fill="#FFE297"/>
</g>
<g filter="url(#filter6_d_338_1430)">
<circle cx="258" cy="697" r="123" fill="#BBE7C0"/>
</g>
<g filter="url(#filter7_d_338_1430)">
<path fill-rule="evenodd" clip-rule="evenodd" d="M1305 1438.93C1397.23 1438.93 1472 1365.07 1472 1273.96C1472 1182.86 1397.23 1109 1305 1109C1212.77 1109 1138 1182.86 1138 1273.96C1138 1365.07 1212.77 1438.93 1305 1438.93ZM1304.39 1358.89C1351.85 1358.89 1390.33 1320.69 1390.33 1273.56C1390.33 1226.44 1351.85 1188.23 1304.39 1188.23C1256.93 1188.23 1218.45 1226.44 1218.45 1273.56C1218.45 1320.69 1256.93 1358.89 1304.39 1358.89Z" fill="#FF9AA4"/>
</g>
<g filter="url(#filter8_d_338_1430)">
<path d="M462.871 824.588C468.379 810.1 489.209 811.124 493.268 826.083L502.928 861.677C504.744 868.366 510.66 873.126 517.584 873.467L554.42 875.279C569.901 876.04 575.363 896.167 562.392 904.65L531.525 924.836C525.724 928.63 523.025 935.728 524.841 942.418L534.5 978.012C538.56 992.97 521.107 1004.38 509.03 994.669L480.293 971.551C474.892 967.206 467.308 966.833 461.507 970.627L430.64 990.813C417.668 999.296 401.419 986.224 406.927 971.736L420.034 937.262C422.497 930.783 420.508 923.455 415.107 919.11L386.371 895.991C374.294 886.276 381.705 866.783 397.186 867.544L434.023 869.356C440.946 869.697 447.301 865.541 449.765 859.062L462.871 824.588Z" fill="#C1B2FC"/>
</g>
<g filter="url(#filter9_d_338_1430)">
<path d="M1148.55 313.374C1148.55 313.374 1060.21 332.886 1039.91 294.148C1022.87 261.604 1087.1 228.409 1061.41 202.404C1035.4 176.063 1001.35 248.058 970.904 227.23C938.862 205.308 964.574 126.81 964.574 126.81" stroke="#FFE297" stroke-width="70" stroke-linecap="round"/>
</g>
<defs>
<filter id="filter0_d_338_1430" x="1945.23" y="863.48" width="312.594" height="202.112" filterUnits="userSpaceOnUse" color-interpolation-filters="sRGB">
<feFlood flood-opacity="0" result="BackgroundImageFix"/>
<feColorMatrix in="SourceAlpha" type="matrix" values="0 0 0 0 0 0 0 0 0 0 0 0 0 0 0 0 0 0 127 0" result="hardAlpha"/>
<feOffset dy="17"/>
<feComposite in2="hardAlpha" operator="out"/>
<feColorMatrix type="matrix" values="0 0 0 0 0.596563 0 0 0 0 0.501823 0 0 0 0 0.979167 0 0 0 1 0"/>
<feBlend mode="normal" in2="BackgroundImageFix" result="effect1_dropShadow_338_1430"/>
<feBlend mode="normal" in="SourceGraphic" in2="effect1_dropShadow_338_1430" result="shape"/>
</filter>
<filter id="filter1_d_338_1430" x="532.553" y="294.376" width="201.633" height="217.708" filterUnits="userSpaceOnUse" color-interpolation-filters="sRGB">
<feFlood flood-opacity="0" result="BackgroundImageFix"/>
<feColorMatrix in="SourceAlpha" type="matrix" values="0 0 0 0 0 0 0 0 0 0 0 0 0 0 0 0 0 0 127 0" result="hardAlpha"/>
<feOffset dy="17"/>
<feComposite in2="hardAlpha" operator="out"/>
<feColorMatrix type="matrix" values="0 0 0 0 0.533333 0 0 0 0 0.772549 0 0 0 0 1 0 0 0 1 0"/>
<feBlend mode="normal" in2="BackgroundImageFix" result="effect1_dropShadow_338_1430"/>
<feBlend mode="normal" in="SourceGraphic" in2="effect1_dropShadow_338_1430" result="shape"/>
</filter>
<filter id="filter2_d_338_1430" x="1681.57" y="1091.33" width="228.076" height="252.95" filterUnits="userSpaceOnUse" color-interpolation-filters="sRGB">
<feFlood flood-opacity="0" result="BackgroundImageFix"/>
<feColorMatrix in="SourceAlpha" type="matrix" values="0 0 0 0 0 0 0 0 0 0 0 0 0 0 0 0 0 0 127 0" result="hardAlpha"/>
<feOffset dy="17"/>
<feComposite in2="hardAlpha" operator="out"/>
<feColorMatrix type="matrix" values="0 0 0 0 0.619608 0 0 0 0 0.831373 0 0 0 0 0.639216 0 0 0 1 0"/>
<feBlend mode="normal" in2="BackgroundImageFix" result="effect1_dropShadow_338_1430"/>
<feBlend mode="normal" in="SourceGraphic" in2="effect1_dropShadow_338_1430" result="shape"/>
</filter>
<filter id="filter3_d_338_1430" x="1629.88" y="291.676" width="168.17" height="189.979" filterUnits="userSpaceOnUse" color-interpolation-filters="sRGB">
<feFlood flood-opacity="0" result="BackgroundImageFix"/>
<feColorMatrix in="SourceAlpha" type="matrix" values="0 0 0 0 0 0 0 0 0 0 0 0 0 0 0 0 0 0 127 0" result="hardAlpha"/>
<feOffset dy="17"/>
<feComposite in2="hardAlpha" operator="out"/>
<feColorMatrix type="matrix" values="0 0 0 0 1 0 0 0 0 0.443137 0 0 0 0 0.498039 0 0 0 1 0"/>
<feBlend mode="normal" in2="BackgroundImageFix" result="effect1_dropShadow_338_1430"/>
<feBlend mode="normal" in="SourceGraphic" in2="effect1_dropShadow_338_1430" result="shape"/>
</filter>
<filter id="filter4_d_338_1430" x="1913.37" y="287.375" width="316.038" height="333.038" filterUnits="userSpaceOnUse" color-interpolation-filters="sRGB">
<feFlood flood-opacity="0" result="BackgroundImageFix"/>
<feColorMatrix in="SourceAlpha" type="matrix" values="0 0 0 0 0 0 0 0 0 0 0 0 0 0 0 0 0 0 127 0" result="hardAlpha"/>
<feOffset dy="17"/>
<feComposite in2="hardAlpha" operator="out"/>
<feColorMatrix type="matrix" values="0 0 0 0 0.619608 0 0 0 0 0.831373 0 0 0 0 0.639216 0 0 0 1 0"/>
<feBlend mode="normal" in2="BackgroundImageFix" result="effect1_dropShadow_338_1430"/>
<feBlend mode="normal" in="SourceGraphic" in2="effect1_dropShadow_338_1430" result="shape"/>
</filter>
<filter id="filter5_d_338_1430" x="289.076" y="1113.08" width="254.873" height="271.873" filterUnits="userSpaceOnUse" color-interpolation-filters="sRGB">
<feFlood flood-opacity="0" result="BackgroundImageFix"/>
<feColorMatrix in="SourceAlpha" type="matrix" values="0 0 0 0 0 0 0 0 0 0 0 0 0 0 0 0 0 0 127 0" result="hardAlpha"/>
<feOffset dy="17"/>
<feComposite in2="hardAlpha" operator="out"/>
<feColorMatrix type="matrix" values="0 0 0 0 1 0 0 0 0 0.713126 0 0 0 0 0.0458333 0 0 0 1 0"/>
<feBlend mode="normal" in2="BackgroundImageFix" result="effect1_dropShadow_338_1430"/>
<feBlend mode="normal" in="SourceGraphic" in2="effect1_dropShadow_338_1430" result="shape"/>
</filter>
<filter id="filter6_d_338_1430" x="135" y="574" width="246" height="263" filterUnits="userSpaceOnUse" color-interpolation-filters="sRGB">
<feFlood flood-opacity="0" result="BackgroundImageFix"/>
<feColorMatrix in="SourceAlpha" type="matrix" values="0 0 0 0 0 0 0 0 0 0 0 0 0 0 0 0 0 0 127 0" result="hardAlpha"/>
<feOffset dy="17"/>
<feComposite in2="hardAlpha" operator="out"/>
<feColorMatrix type="matrix" values="0 0 0 0 0.619608 0 0 0 0 0.831373 0 0 0 0 0.639216 0 0 0 1 0"/>
<feBlend mode="normal" in2="BackgroundImageFix" result="effect1_dropShadow_338_1430"/>
<feBlend mode="normal" in="SourceGraphic" in2="effect1_dropShadow_338_1430" result="shape"/>
</filter>
<filter id="filter7_d_338_1430" x="1138" y="1109" width="334" height="346.927" filterUnits="userSpaceOnUse" color-interpolation-filters="sRGB">
<feFlood flood-opacity="0" result="BackgroundImageFix"/>
<feColorMatrix in="SourceAlpha" type="matrix" values="0 0 0 0 0 0 0 0 0 0 0 0 0 0 0 0 0 0 127 0" result="hardAlpha"/>
<feOffset dy="17"/>
<feComposite in2="hardAlpha" operator="out"/>
<feColorMatrix type="matrix" values="0 0 0 0 1 0 0 0 0 0.443137 0 0 0 0 0.498039 0 0 0 1 0"/>
<feBlend mode="normal" in2="BackgroundImageFix" result="effect1_dropShadow_338_1430"/>
<feBlend mode="normal" in="SourceGraphic" in2="effect1_dropShadow_338_1430" result="shape"/>
</filter>
<filter id="filter8_d_338_1430" x="380.361" y="814.272" width="189.296" height="200.999" filterUnits="userSpaceOnUse" color-interpolation-filters="sRGB">
<feFlood flood-opacity="0" result="BackgroundImageFix"/>
<feColorMatrix in="SourceAlpha" type="matrix" values="0 0 0 0 0 0 0 0 0 0 0 0 0 0 0 0 0 0 127 0" result="hardAlpha"/>
<feOffset dy="17"/>
<feComposite in2="hardAlpha" operator="out"/>
<feColorMatrix type="matrix" values="0 0 0 0 0.596563 0 0 0 0 0.501823 0 0 0 0 0.979167 0 0 0 1 0"/>
<feBlend mode="normal" in2="BackgroundImageFix" result="effect1_dropShadow_338_1430"/>
<feBlend mode="normal" in="SourceGraphic" in2="effect1_dropShadow_338_1430" result="shape"/>
</filter>
<filter id="filter9_d_338_1430" x="919.814" y="91.8008" width="268.741" height="278.487" filterUnits="userSpaceOnUse" color-interpolation-filters="sRGB">
<feFlood flood-opacity="0" result="BackgroundImageFix"/>
<feColorMatrix in="SourceAlpha" type="matrix" values="0 0 0 0 0 0 0 0 0 0 0 0 0 0 0 0 0 0 127 0" result="hardAlpha"/>
<feOffset dx="5" dy="17"/>
<feComposite in2="hardAlpha" operator="out"/>
<feColorMatrix type="matrix" values="0 0 0 0 1 0 0 0 0 0.713726 0 0 0 0 0.0470588 0 0 0 1 0"/>
<feBlend mode="normal" in2="BackgroundImageFix" result="effect1_dropShadow_338_1430"/>
<feBlend mode="normal" in="SourceGraphic" in2="effect1_dropShadow_338_1430" result="shape"/>
</filter>
</defs>
</svg>
